<svg xmlns="http://www.w3.org/2000/svg" xmlns:xlink="http://www.w3.org/1999/xlink" width="1138.344" height="1011.521" viewBox="0 0 1138.344 1011.521"><defs><linearGradient id="a" x1="0.5" x2="0.5" y2="1" gradientUnits="objectBoundingBox"><stop offset="0" stop-color="#ff4d4d"/><stop offset="1" stop-color="#802727"/></linearGradient><linearGradient id="c" x1="0.061" y1="0.787" x2="0.818" y2="0.357" gradientUnits="objectBoundingBox"><stop offset="0" stop-color="#a5ceff" stop-opacity="0.102"/><stop offset="1" stop-color="#003b80" stop-opacity="0"/></linearGradient><linearGradient id="f" x1="0.011" y1="0.43" x2="0.918" y2="0.652" xlink:href="#a"/><linearGradient id="g" x1="0.5" x2="0.5" y2="1" gradientUnits="objectBoundingBox"><stop offset="0" stop-color="#ff4d4d"/><stop offset="1" stop-color="#982929"/></linearGradient><linearGradient id="h" x1="0.014" y1="0.529" x2="0.98" y2="0.589" xlink:href="#a"/><linearGradient id="i" x1="0.527" y1="0.618" x2="0.148" y2="0.844" gradientUnits="objectBoundingBox"><stop offset="0" stop-color="#ff4d4d"/><stop offset="1" stop-color="#ff7b7b"/></linearGradient></defs><g transform="translate(-780.848 -68.479)"><path d="M-1267.153,5135-843.7,4569.479h86.946l238.3-297.869,37.032,37.032,125.588-185.162,227.025,421.848V5135Z" transform="translate(2048 -4055)" fill="#285487"/><path d="M-2399.915,4123.479l-80.981,119.958-45.731,67.644-37.156,58.116,71.454-42.873,11.433,75.265,54.305-61.927,32.393,80.029,40.967-72.407,33.345,34.3,4.764-48.589,53.353,48.589-138.145-253.425Z" transform="translate(4093 -4055)" fill="#fff" opacity="0.89"/><path d="M-2563.783,6719.585l-88.84,111.23,37.289-17.764,1.2,26.449,32.19-30.785,5.51,25.653,12.9-17.246,38.4-60.011Z" transform="translate(4093 -6503)" fill="#fff" opacity="0.57"/><rect width="43" height="6" rx="3" transform="translate(1160 491)" fill="url(#a)"/><rect width="6" height="33" rx="3" transform="translate(1148.792 462.875) rotate(-19)" fill="url(#a)"/><path d="M-9593.657,6966.733l40.719-38.219,25.9,52.506-57.687,13.038Z" transform="translate(10749 -6503)" fill="url(#c)"/><rect width="44" height="11" rx="5.5" transform="translate(1183 503)" fill="url(#a)"/><rect width="11" height="30" rx="5.5" transform="translate(1180.04 503.789) rotate(-6)" fill="url(#a)"/><rect width="50" height="8" rx="4" transform="matrix(0.788, -0.616, 0.616, 0.788, 1180.049, 485.855)" fill="url(#f)"/><rect width="17" height="70" rx="8.5" transform="translate(1211 444)" fill="url(#g)"/><rect width="48" height="8" rx="4" transform="matrix(0.788, -0.616, 0.616, 0.788, 1185.625, 495.624)" fill="url(#h)"/><circle cx="14" cy="14" r="14" transform="translate(1198 422)" fill="url(#i)"/></g></svg>