<svg xmlns="http://www.w3.org/2000/svg" xmlns:xlink="http://www.w3.org/1999/xlink" width="1920" height="1080" viewBox="0 0 1920 1080"><defs><linearGradient id="a" y1="0.5" x2="1" y2="0.5" gradientUnits="objectBoundingBox"><stop offset="0" stop-color="#032f51"/><stop offset="1" stop-color="#00255d"/></linearGradient><clipPath id="c"><rect width="1920" height="1080"/></clipPath></defs><g id="b" clip-path="url(#c)"><rect width="1920" height="1080" fill="url(#a)"/><path d="M345.808-60.076q-23.874,0-47.025-.723t-43.408-2.894V314.68H78.125v-968H357.384q70.176,0,122.628,6.15T573.7-628.722q99.115,30.386,152.652,96.945t53.537,169.292q0,70.176-28.939,126.245T666.3-141.1Q610.6-102.038,530.293-81.057T345.808-60.076ZM255.375-212.728q15.193,2.17,38.706,3.256t48.834,1.085q71.623,0,120.1-11.576t78.135-32.194q29.662-20.619,42.685-49.919T596.852-366.1q0-42.685-19.534-73.794T509.312-488.37q-25.321-8.682-62.58-12.661t-91.519-3.979H255.375Zm1428.85-149.758q0,101.286-56.069,171.824T1454.885-86.121v2.894l287.94,397.908h-212.7L1266.783-60.076H1145.241V314.68H967.991v-968h294.451q73.071,0,136.012,8.32t107.8,24.96q85.369,32.556,131.671,96.583T1684.224-362.486Zm-451.444,154.1q60.771,0,103.094-5.426t71.262-16.278q53.537-20.257,74.156-55.345T1501.91-366.1q0-39.067-16.278-69.091t-55.345-47.387q-25.321-11.575-63.665-17t-94.774-5.426H1145.241v296.622Z" transform="translate(66.849 727.32)" fill="#003560" opacity="0.2"/></g></svg>