<svg xmlns="http://www.w3.org/2000/svg" xmlns:xlink="http://www.w3.org/1999/xlink" width="1920" height="1080" viewBox="0 0 1920 1080"><defs><linearGradient id="a" y1="0.5" x2="1" y2="0.5" gradientUnits="objectBoundingBox"><stop offset="0" stop-color="#032f51"/><stop offset="1" stop-color="#00255d"/></linearGradient><clipPath id="c"><rect width="1920" height="1080"/></clipPath></defs><g id="b" clip-path="url(#c)"><rect width="1920" height="1080" fill="url(#a)"/><path d="M523.682-527.279q-66.787,0-123.222,22.04T303.62-441.124q-40.406,42.076-63.113,103.853T217.8-196.017q0,78.808,20.7,138.582t59.44,99.846q38.736,40.072,94.5,60.442t126.561,20.37a688.767,688.767,0,0,0,103.519-8.014,594.592,594.592,0,0,0,98.844-23.375v140.92a752.13,752.13,0,0,1-100.848,21.038,797.673,797.673,0,0,1-112.2,7.68q-113.538,0-199.692-32.392T164.7,137.583Q106.933,78.477,77.88-4T48.828-186q0-102.184,31.056-189.674t89.494-151.606q58.438-64.115,146.263-100.848t198.691-37.4a718.858,718.858,0,0,1,107.527,7.681q50.758,7.681,91.5,21.706v138.916q-53.429-16.7-99.512-23.375A628.26,628.26,0,0,0,523.682-527.279ZM1550.194-202.027q0-81.48-20.036-142.59t-55.433-101.85a222.031,222.031,0,0,0-84.151-60.776q-48.754-20.036-106.859-20.036t-106.859,20.036a222.032,222.032,0,0,0-84.151,60.776q-35.4,40.74-55.433,101.85t-20.036,142.59q0,81.48,20.036,142.59t55.433,101.516a226.894,226.894,0,0,0,84.151,60.776q48.754,20.37,106.859,20.37t106.859-20.37a226.893,226.893,0,0,0,84.151-60.776q35.4-40.406,55.433-101.516T1550.194-202.027Zm168.97,0q0,102.184-29.052,187.337t-84.819,146.6q-55.767,61.444-136.913,95.505t-184.665,34.061q-103.519,0-184.665-34.061T962.137,131.906q-55.767-61.444-84.819-146.6T848.266-202.027q0-102.184,29.052-187.337t84.819-146.6Q1017.9-597.4,1099.05-631.466t184.665-34.061q103.52,0,184.665,34.061t136.913,95.505q55.767,61.444,84.819,146.6T1719.165-202.027Z" transform="translate(76.172 742.527)" fill="#003560" opacity="0.2"/></g></svg>